<?xml version="1.0" encoding="utf-8"?>
<svg version="1.1" id="Layer_1" x="0px" y="0px" width="100%" viewBox="0 0 408 408" enable-background="new 0 0 408 408" xmlns="http://www.w3.org/2000/svg" xmlns:bx="https://boxy-svg.com">
  <defs>
    <bx:grid x="0.518" y="0.819" width="100" height="100"/>
  </defs>
  <path opacity="1.000000" stroke="none" d=" M198.378845,407.987549 C197.568054,407.895142 197.135574,407.717133 196.355042,407.494873 C181.234833,398.434113 166.481964,389.385834 151.684525,380.411011 C139.437210,372.982910 127.186737,365.557037 114.825813,358.321228 C111.741898,356.515961 112.102409,355.405396 114.539200,353.416687 C122.801186,346.673920 130.964218,339.809296 139.131271,332.950989 C147.671463,325.779297 149.661392,318.526276 146.317383,308.027252 C145.518570,305.519257 144.303482,305.745026 142.698822,306.874695 C139.977066,308.790833 137.221191,310.681885 134.666946,312.808472 C123.014114,322.510101 111.355598,332.207520 99.852997,342.085602 C95.683891,345.665924 91.780571,345.858307 87.130653,343.108734 C73.795677,335.223541 60.290890,327.625427 46.961006,319.731812 C41.483982,316.488495 35.514652,314.351227 29.905096,311.446045 C24.811798,308.808258 24.393847,306.334167 28.263826,302.148315 C30.519073,299.709015 33.044872,297.505615 35.556873,295.320129 C64.349464,270.270142 93.162575,245.243698 121.971962,220.212997 C122.726387,219.557526 123.605087,219.014084 124.245712,218.264465 C126.119003,216.072464 131.666794,215.922165 128.927139,211.134445 C125.630150,205.372787 118.037758,202.391357 113.650589,204.707825 C112.200211,205.473633 110.913483,206.600006 109.665848,207.691727 C85.836281,228.543427 62.023758,249.414612 38.086952,270.592590 C37.536083,271.349121 37.021385,271.493256 36.288086,270.930481 C36.117729,254.744583 37.521877,238.944061 34.392284,223.236786 C32.189156,212.179428 32.520878,201.016571 35.044083,189.982269 C35.903786,186.222687 36.269253,182.433746 36.272007,178.584366 C36.274841,174.622467 37.161865,170.930557 40.357132,168.243484 C42.955589,166.058273 42.426643,164.474838 39.663029,163.028656 C36.568184,161.409103 33.523876,159.693130 30.453281,158.027054 C26.328526,155.789001 23.832165,152.775787 24.352472,147.630569 C24.786768,143.335907 24.463940,138.970337 24.667057,134.645111 C24.890425,129.888733 26.353338,129.057938 30.710754,131.202347 C36.836361,134.216919 42.886719,137.384079 48.993942,140.436600 C50.416885,141.147797 51.795357,142.355240 53.584084,141.067215 C56.962433,138.634521 60.208702,139.720764 63.376419,141.604675 C70.534241,145.861572 77.745239,150.032806 84.826576,154.413528 C92.080177,158.900818 92.858246,163.878296 87.399712,170.490158 C81.957161,177.082672 75.279953,182.370804 68.714478,187.769836 C64.770966,191.012726 61.308189,194.577881 61.676899,200.617493 C62.362049,201.350906 62.899441,201.545654 63.717682,201.190491 C73.597816,193.883942 82.723373,186.132660 91.380707,177.832733 C102.392548,167.275513 108.330231,165.976257 121.774170,172.674545 C138.605499,181.060547 155.179413,189.963226 171.860626,198.650192 C172.598267,199.034332 173.308365,199.474762 174.013809,199.916855 C183.610413,205.930801 184.522095,212.147705 176.112473,219.894577 C159.199265,235.474869 141.520874,250.192429 123.765862,264.801697 C109.862915,276.241364 96.439270,288.218048 83.124878,300.323669 C81.998749,301.347534 79.840744,302.261902 80.895660,304.234222 C81.876022,306.067108 84.018127,305.841705 85.840797,305.602509 C88.598518,305.240570 90.778381,303.686768 92.803879,301.915497 C111.993713,285.134216 131.860992,269.150757 150.966827,252.260269 C158.684998,245.437042 166.147598,238.323944 173.999542,231.647812 C175.688309,230.211899 177.463364,229.051056 179.481705,228.282120 C185.549744,225.970337 189.769775,228.092484 190.996964,234.435623 C191.719147,238.168503 191.946060,242.047653 191.948990,245.861343 C191.974625,279.352386 191.855713,312.843567 191.900406,346.334534 C191.907364,351.539795 190.595978,356.031189 187.592377,360.341431 C181.603348,368.935852 181.916840,369.819031 190.707031,375.387970 C199.965546,381.253601 204.972519,398.560242 199.897064,407.260376 C199.707504,407.585297 199.145584,407.692993 198.378845,407.987549 z" style="fill: rgb(60, 137, 232);"/>
  <path opacity="1.000000" stroke="none" d=" M232.325165,351.971375 C229.654037,352.792938 227.303635,353.576202 224.990494,354.457245 C221.473450,355.796844 219.735336,354.471954 218.929504,350.929596 C215.840012,337.348389 213.678619,323.793213 214.145096,309.678894 C214.854568,288.211517 214.408264,266.702911 214.290009,245.212723 C214.243698,236.801147 216.239151,229.434799 222.938354,223.781021 C225.268951,221.814087 226.874619,219.173386 227.241745,216.076950 C228.144073,208.466888 232.504059,203.221542 238.726074,199.405136 C248.661148,193.311218 258.738678,187.449860 268.737061,181.458694 C287.852783,170.004379 307.935242,160.197372 326.389374,147.611572 C327.887634,146.589737 329.574707,145.786102 331.267517,145.117920 C340.015289,141.665100 346.142853,145.263565 347.255798,154.626404 C347.667328,158.088303 347.634979,161.609375 347.697083,165.105377 C348.256104,196.590454 348.091034,228.075714 347.733307,259.561615 C347.704132,262.128754 347.209290,264.426331 346.012268,266.721802 C342.008972,274.398743 338.340820,282.254730 334.199341,289.854156 C330.142426,297.298370 324.491364,303.545105 317.024445,307.595154 C292.133392,321.096039 268.472595,336.733276 243.352997,349.826752 C240.677567,351.221344 238.050262,352.716125 234.429626,351.928864 C233.562424,351.973236 233.112534,351.977783 232.325165,351.971375 z" style="fill: rgb(60, 137, 232);"/>
  <path opacity="1.000000" stroke="none" d=" M189.395767,181.657013 C186.712173,180.518707 184.318619,179.715240 182.171997,178.481979 C153.014908,161.730728 123.883553,144.934601 94.776253,128.096985 C92.339767,126.687561 89.994316,125.052734 87.835670,123.248528 C85.243294,121.081833 85.432007,118.585846 87.981705,116.487625 C89.640617,115.122444 91.508148,113.982727 93.375145,112.902649 C123.348778,95.562614 153.346558,78.264259 183.303009,60.894657 C185.424500,59.664566 187.210373,59.020359 189.769714,59.942608 C194.736359,61.732296 199.978928,61.467480 205.082550,60.485359 C216.732040,58.243568 227.076538,60.394115 237.441467,66.679176 C263.343353,82.385513 289.805267,97.166748 315.995331,112.400208 C326.984528,118.792084 327.224976,121.312485 316.382416,127.640587 C286.477295,145.094269 256.357941,162.181076 226.300201,179.372604 C224.874649,180.187943 223.227234,180.615402 221.347870,181.411804 C219.950912,181.953674 218.871613,182.022278 217.382339,181.678589 C209.629440,177.237610 202.207291,176.612000 194.355515,181.379913 C192.629196,182.047531 191.221756,182.051575 189.395767,181.657013 z" style="fill: rgb(60, 137, 232);"/>
  <path opacity="1.000000" stroke="none" d=" M88.225311,66.256851 C124.043037,45.609402 159.549728,25.156626 195.028366,4.655318 C201.679855,0.811760 208.273712,0.757522 214.873001,4.564498 C268.110504,35.276024 321.320862,66.034584 374.583649,96.702171 C380.704681,100.226532 383.439209,105.156616 383.414764,112.231461 C383.208618,171.883621 382.709717,231.538254 383.579346,291.187012 C383.766083,303.995087 377.949188,311.204346 366.867706,317.335602 C328.687500,338.460205 291.111450,360.675568 253.268738,382.411865 C239.114624,390.541779 224.801682,398.396515 210.694183,406.605316 C207.289474,408.586426 206.330017,407.796631 205.548080,404.295105 C203.662460,395.851196 204.593353,392.910553 211.925629,388.404083 C220.297531,383.258667 228.817139,378.353760 237.265411,373.332275 C238.830429,372.402100 240.496643,371.610474 241.432755,369.877655 C245.156403,362.984863 251.197891,358.646667 257.900696,355.058258 C289.770020,337.996307 320.665161,319.234467 351.961731,301.173004 C358.601990,297.340881 361.931976,291.529541 362.280212,283.997742 C362.472412,279.840576 362.355804,275.668549 362.357452,271.503235 C362.376038,224.846176 362.151825,178.187027 362.563171,131.533463 C362.675018,118.844482 357.721222,110.924774 346.738556,104.661148 C307.677368,82.383781 269.029205,59.382637 230.198654,36.699986 C224.591370,33.424507 218.745850,30.551805 213.185577,27.202236 C207.573929,23.821726 202.167267,23.940712 196.700928,27.262785 C161.537354,48.632809 125.118973,67.853683 90.118004,89.501930 C84.463547,92.999252 79.036308,97.042229 71.643333,95.358253 C70.461853,95.089134 68.863434,96.250977 67.567078,96.953125 C61.124229,100.442749 54.748417,104.056770 48.289978,107.516815 C42.265423,110.744400 37.123150,110.316574 32.498177,106.398705 C28.764971,103.236267 28.827793,100.820229 33.066013,98.337692 C51.313736,87.649086 69.619774,77.060036 88.225311,66.256851 z" style="fill: rgb(22, 119, 255);"/>
</svg>